# xmcd
#
# Track frame offsets:
#	150
#	14400
#	31910
#	46180
#	57175
#	78802
#	91530
#	109940
#	125230
#	141940
#	158410
#	172060
#	188100
#	202025
#	216782
#	231895
#
# Disc length: 3326 seconds
#
# Revision: 0
# Processed by: cddbd v1.5.2PL0 Copyright (c) Steve Scherf et al.
# Submitted via: EasyCDDAExtractor 16.0.6.1
#
DISCID=d30cfc10
DTITLE=Συλλογικός δίσκος - Οι πατρίδες της Ελλάδας 5-Ρούμελη
DYEAR=2004
DGENRE=Παραδοσιακή
TTITLE0=Μεντζελόπουλος Κώστας - Συννέφιασε ο Παρνασσός [παραδοσιακό]
TTITLE1=Βέρρα Ευγενία - Να ήμουν στην Αράχωβα [παραδοσιακό]
TTITLE2=Μεντζελόπουλος Κώστας - Στ' απόσκια του βασιλικού [παραδοσιακό]
TTITLE3=Ανδριόπουλος Ανδρέας - Ο πλάτανος [παραδοσιακό]
TTITLE4=Φραγκούλη Κική - Η μαντζουράνα [παραδοσιακό]
TTITLE5=Βέρρα Ευγενία - Γιάνναινα Γιαννάκαινα [παραδοσιακό]
TTITLE6=Ανδριόπουλος Ανδρέας - Κάτω στου βάλτου τα χωριά [παραδοσιακό]
TTITLE7=Ανδριόπουλος Ανδρέας - Η Θήβα έχει όμορφες-Η άμαξα [παραδοσιακά]
TTITLE8=Μεντζελόπουλος Κώστας - Κατακαημένη Αράχωβα [παραδοσιακό]
TTITLE9=Στίγκα Θεοδοσία - Ποιος έχει δυό αγαπητικές [παραδοσιακό]
TTITLE10=Βέρρα Ευγενία - Τα Ρίτσα [παραδοσιακό]
TTITLE11=Μεντζελόπουλος Κώστας - Τ΄Ανδρούτσου η μάνα χαίρεται [παραδοσιακό]
TTITLE12=Φραγκούλη Κική - Ο Λιούλιος [παραδοσιακό]
TTITLE13=Φραγκούλη Κική - Μαρία Πενταγιώτισσα [παραδοσιακό]
TTITLE14=Ανδριόπουλος Ανδρέας - Έφταιξα, συμπάθησέ με-Βρέχει απόψε και χιονίζε
TTITLE14=ι [παραδοσιακά]
TTITLE15=Φραγκούλη Κική - Μαράθηκε το χειλάκι μου [παραδοσιακό]
EXTD=
EXTT0=
EXTT1=
EXTT2=
EXTT3=
EXTT4=
EXTT5=
EXTT6=
EXTT7=
EXTT8=
EXTT9=
EXTT10=
EXTT11=
EXTT12=
EXTT13=
EXTT14=
EXTT15=
PLAYORDER=
